<svg version="1.1" xmlns="http://www.w3.org/2000/svg" xmlns:xlink="http://www.w3.org/1999/xlink" width="1182" height="544"><defs><clipPath id="dfBVkNhgtADU"><path fill="none" stroke="none" d=" M 0 0 L 1182 0 L 1182 544 L 0 544 L 0 0 Z"/></clipPath></defs><g transform="scale(1,1)" clip-path="url(#dfBVkNhgtADU)"><g><rect fill="rgb(255,255,255)" stroke="none" x="0" y="0" width="1183" height="545" fill-opacity="1"/><path fill="none" stroke="rgb(192,192,192)" paint-order="fill stroke markers" d=" M 10.5 0.5 L 10.5 544.5 M 10.5 0.5 L 10.5 544.5 M 64.5 0.5 L 64.5 544.5 M 118.5 0.5 L 118.5 544.5 M 172.5 0.5 L 172.5 544.5 M 226.5 0.5 L 226.5 544.5 M 280.5 0.5 L 280.5 544.5 M 335.5 0.5 L 335.5 544.5 M 389.5 0.5 L 389.5 544.5 M 443.5 0.5 L 443.5 544.5 M 497.5 0.5 L 497.5 544.5 M 551.5 0.5 L 551.5 544.5 M 605.5 0.5 L 605.5 544.5 M 659.5 0.5 L 659.5 544.5 M 713.5 0.5 L 713.5 544.5 M 767.5 0.5 L 767.5 544.5 M 821.5 0.5 L 821.5 544.5 M 875.5 0.5 L 875.5 544.5 M 929.5 0.5 L 929.5 544.5 M 983.5 0.5 L 983.5 544.5 M 1037.5 0.5 L 1037.5 544.5 M 1091.5 0.5 L 1091.5 544.5 M 1145.5 0.5 L 1145.5 544.5" stroke-opacity="1" stroke-linecap="round" stroke-linejoin="round" stroke-miterlimit="10"/><path fill="none" stroke="rgb(192,192,192)" paint-order="fill stroke markers" d=" M 21.5 0.5 L 21.5 544.5 M 32.5 0.5 L 32.5 544.5 M 43.5 0.5 L 43.5 544.5 M 53.5 0.5 L 53.5 544.5 M 75.5 0.5 L 75.5 544.5 M 86.5 0.5 L 86.5 544.5 M 97.5 0.5 L 97.5 544.5 M 108.5 0.5 L 108.5 544.5 M 129.5 0.5 L 129.5 544.5 M 140.5 0.5 L 140.5 544.5 M 151.5 0.5 L 151.5 544.5 M 162.5 0.5 L 162.5 544.5 M 183.5 0.5 L 183.5 544.5 M 194.5 0.5 L 194.5 544.5 M 205.5 0.5 L 205.5 544.5 M 216.5 0.5 L 216.5 544.5 M 237.5 0.5 L 237.5 544.5 M 248.5 0.5 L 248.5 544.5 M 259.5 0.5 L 259.5 544.5 M 270.5 0.5 L 270.5 544.5 M 291.5 0.5 L 291.5 544.5 M 302.5 0.5 L 302.5 544.5 M 313.5 0.5 L 313.5 544.5 M 324.5 0.5 L 324.5 544.5 M 345.5 0.5 L 345.5 544.5 M 356.5 0.5 L 356.5 544.5 M 367.5 0.5 L 367.5 544.5 M 378.5 0.5 L 378.5 544.5 M 399.5 0.5 L 399.5 544.5 M 410.5 0.5 L 410.5 544.5 M 421.5 0.5 L 421.5 544.5 M 432.5 0.5 L 432.5 544.5 M 453.5 0.5 L 453.5 544.5 M 464.5 0.5 L 464.5 544.5 M 475.5 0.5 L 475.5 544.5 M 486.5 0.5 L 486.5 544.5 M 507.5 0.5 L 507.5 544.5 M 518.5 0.5 L 518.5 544.5 M 529.5 0.5 L 529.5 544.5 M 540.5 0.5 L 540.5 544.5 M 561.5 0.5 L 561.5 544.5 M 572.5 0.5 L 572.5 544.5 M 583.5 0.5 L 583.5 544.5 M 594.5 0.5 L 594.5 544.5 M 616.5 0.5 L 616.5 544.5 M 626.5 0.5 L 626.5 544.5 M 637.5 0.5 L 637.5 544.5 M 648.5 0.5 L 648.5 544.5 M 670.5 0.5 L 670.5 544.5 M 680.5 0.5 L 680.5 544.5 M 691.5 0.5 L 691.5 544.5 M 702.5 0.5 L 702.5 544.5 M 724.5 0.5 L 724.5 544.5 M 734.5 0.5 L 734.5 544.5 M 745.5 0.5 L 745.5 544.5 M 756.5 0.5 L 756.5 544.5 M 778.5 0.5 L 778.5 544.5 M 788.5 0.5 L 788.5 544.5 M 799.5 0.5 L 799.5 544.5 M 810.5 0.5 L 810.5 544.5 M 832.5 0.5 L 832.5 544.5 M 843.5 0.5 L 843.5 544.5 M 853.5 0.5 L 853.5 544.5 M 864.5 0.5 L 864.5 544.5 M 886.5 0.5 L 886.5 544.5 M 897.5 0.5 L 897.5 544.5 M 907.5 0.5 L 907.5 544.5 M 918.5 0.5 L 918.5 544.5 M 940.5 0.5 L 940.5 544.5 M 951.5 0.5 L 951.5 544.5 M 961.5 0.5 L 961.5 544.5 M 972.5 0.5 L 972.5 544.5 M 994.5 0.5 L 994.5 544.5 M 1005.5 0.5 L 1005.5 544.5 M 1015.5 0.5 L 1015.5 544.5 M 1026.5 0.5 L 1026.5 544.5 M 1048.5 0.5 L 1048.5 544.5 M 1059.5 0.5 L 1059.5 544.5 M 1070.5 0.5 L 1070.5 544.5 M 1080.5 0.5 L 1080.5 544.5 M 1102.5 0.5 L 1102.5 544.5 M 1113.5 0.5 L 1113.5 544.5 M 1124.5 0.5 L 1124.5 544.5 M 1134.5 0.5 L 1134.5 544.5 M 1156.5 0.5 L 1156.5 544.5 M 1167.5 0.5 L 1167.5 544.5 M 1178.5 0.5 L 1178.5 544.5" stroke-opacity="0.23529411764705882" stroke-linecap="round" stroke-linejoin="round" stroke-miterlimit="10"/><path fill="none" stroke="rgb(192,192,192)" paint-order="fill stroke markers" d=" M 0.5 8.5 L 1182.5 8.5 M 0.5 8.5 L 1182.5 8.5 M 0.5 62.5 L 1182.5 62.5 M 0.5 116.5 L 1182.5 116.5 M 0.5 170.5 L 1182.5 170.5 M 0.5 224.5 L 1182.5 224.5 M 0.5 278.5 L 1182.5 278.5 M 0.5 332.5 L 1182.5 332.5 M 0.5 386.5 L 1182.5 386.5 M 0.5 440.5 L 1182.5 440.5 M 0.5 494.5 L 1182.5 494.5" stroke-opacity="1" stroke-linecap="round" stroke-linejoin="round" stroke-miterlimit="10"/><path fill="none" stroke="rgb(192,192,192)" paint-order="fill stroke markers" d=" M 0.5 8.5 L 1182.5 8.5 M 0.5 19.5 L 1182.5 19.5 M 0.5 30.5 L 1182.5 30.5 M 0.5 40.5 L 1182.5 40.5 M 0.5 51.5 L 1182.5 51.5 M 0.5 73.5 L 1182.5 73.5 M 0.5 84.5 L 1182.5 84.5 M 0.5 94.5 L 1182.5 94.5 M 0.5 105.5 L 1182.5 105.5 M 0.5 127.5 L 1182.5 127.5 M 0.5 138.5 L 1182.5 138.5 M 0.5 149.5 L 1182.5 149.5 M 0.5 159.5 L 1182.5 159.5 M 0.5 181.5 L 1182.5 181.5 M 0.5 192.5 L 1182.5 192.5 M 0.5 203.5 L 1182.5 203.5 M 0.5 213.5 L 1182.5 213.5 M 0.5 235.5 L 1182.5 235.5 M 0.5 246.5 L 1182.5 246.5 M 0.5 257.5 L 1182.5 257.5 M 0.5 267.5 L 1182.5 267.5 M 0.5 289.5 L 1182.5 289.5 M 0.5 300.5 L 1182.5 300.5 M 0.5 311.5 L 1182.5 311.5 M 0.5 321.5 L 1182.5 321.5 M 0.5 343.5 L 1182.5 343.5 M 0.5 354.5 L 1182.5 354.5 M 0.5 365.5 L 1182.5 365.5 M 0.5 375.5 L 1182.5 375.5 M 0.5 397.5 L 1182.5 397.5 M 0.5 408.5 L 1182.5 408.5 M 0.5 419.5 L 1182.5 419.5 M 0.5 430.5 L 1182.5 430.5 M 0.5 451.5 L 1182.5 451.5 M 0.5 462.5 L 1182.5 462.5 M 0.5 473.5 L 1182.5 473.5 M 0.5 484.5 L 1182.5 484.5 M 0.5 505.5 L 1182.5 505.5 M 0.5 516.5 L 1182.5 516.5 M 0.5 527.5 L 1182.5 527.5 M 0.5 538.5 L 1182.5 538.5" stroke-opacity="0.23529411764705882" stroke-linecap="round" stroke-linejoin="round" stroke-miterlimit="10"/></g></g></svg>